<?xml version="1.0" encoding="UTF-8" standalone="no"?>
<svg width="317px" height="214px" viewBox="0 0 317 214" version="1.1" xmlns="http://www.w3.org/2000/svg" xmlns:xlink="http://www.w3.org/1999/xlink">
    <!-- Generator: Sketch 3.7.2 (28276) - http://www.bohemiancoding.com/sketch -->
    <title>Slice 1 Copy</title>
    <desc>Created with Sketch.</desc>
    <defs></defs>
    <g id="Page-1" stroke="none" stroke-width="1" fill="none" fill-rule="evenodd">
        <g id="icon-slider" transform="translate(0.000000, 16.000000)" fill="#393939">
            <path d="M249.284201,0 L66.7157988,0 C56.5731097,0 46.4304207,10.1011741 46.4304207,20.2023482 L46.4304207,161.618786 C46.4304207,172.730077 55.5588408,181.821134 66.7157988,181.821134 L249.284201,181.821134 C259.42689,181.821134 269.569579,171.71996 269.569579,161.618786 L269.569579,20.2023482 C269.569579,10.1011741 259.42689,0 249.284201,0 L249.284201,0 Z M87.0011768,141.416437 L122.500588,95.9611539 L147.857311,126.365688 L183.356723,80.8093928 L228.998823,141.416437 L87.0011768,141.416437 L87.0011768,141.416437 Z" id="Shape"></path>
            <polygon id="Shape" transform="translate(307.043478, 90.122977) rotate(-270.000000) translate(-307.043478, -90.122977) " points="288.920501 99.1664556 307.043478 81.0794991 325.166456 99.1664556"></polygon>
            <polygon id="Shape-Copy-6" transform="translate(9.061489, 90.434783) scale(-1, 1) rotate(-270.000000) translate(-9.061489, -90.434783) " points="-9.06148867 99.4782609 9.06148867 81.3913043 27.184466 99.4782609"></polygon>
        </g>
    </g>
</svg>