<?xml version="1.0" encoding="UTF-8" standalone="no"?>
<svg width="317px" height="214px" viewBox="0 0 317 214" version="1.1" xmlns="http://www.w3.org/2000/svg" xmlns:xlink="http://www.w3.org/1999/xlink">
    <!-- Generator: Sketch 3.7.2 (28276) - http://www.bohemiancoding.com/sketch -->
    <title>Slice 1</title>
    <desc>Created with Sketch.</desc>
    <defs></defs>
    <g id="Page-1" stroke="none" stroke-width="1" fill="none" fill-rule="evenodd">
        <g id="icon-gallery" transform="translate(2.000000, 7.000000)" fill="#393939">
            <path d="M86,76.4444444 L86,9.55555556 C86,4.3 81.7,0 76.4444444,0 L9.55555556,0 C4.3,0 0,4.3 0,9.55555556 L0,76.4444444 C0,81.7 4.3,86 9.55555556,86 L76.4444444,86 C81.7,86 86,81.7 86,76.4444444 L86,76.4444444 Z M26.2777778,50.1666667 L38.2222222,64.5477778 L54.9444444,43 L76.4444444,71.6666667 L9.55555556,71.6666667 L26.2777778,50.1666667 L26.2777778,50.1666667 Z" id="Shape"></path>
            <path d="M86,190.444444 L86,123.555556 C86,118.3 81.7,114 76.4444444,114 L9.55555556,114 C4.3,114 0,118.3 0,123.555556 L0,190.444444 C0,195.7 4.3,200 9.55555556,200 L76.4444444,200 C81.7,200 86,195.7 86,190.444444 L86,190.444444 Z M26.2777778,164.166667 L38.2222222,178.547778 L54.9444444,157 L76.4444444,185.666667 L9.55555556,185.666667 L26.2777778,164.166667 L26.2777778,164.166667 Z" id="Shape-Copy-2"></path>
            <path d="M200,76.4444444 L200,9.55555556 C200,4.3 195.7,0 190.444444,0 L123.555556,0 C118.3,0 114,4.3 114,9.55555556 L114,76.4444444 C114,81.7 118.3,86 123.555556,86 L190.444444,86 C195.7,86 200,81.7 200,76.4444444 L200,76.4444444 Z M140.277778,50.1666667 L152.222222,64.5477778 L168.944444,43 L190.444444,71.6666667 L123.555556,71.6666667 L140.277778,50.1666667 L140.277778,50.1666667 Z" id="Shape-Copy"></path>
            <path d="M314,76.4444444 L314,9.55555556 C314,4.3 309.7,0 304.444444,0 L237.555556,0 C232.3,0 228,4.3 228,9.55555556 L228,76.4444444 C228,81.7 232.3,86 237.555556,86 L304.444444,86 C309.7,86 314,81.7 314,76.4444444 L314,76.4444444 Z M254.277778,50.1666667 L266.222222,64.5477778 L282.944444,43 L304.444444,71.6666667 L237.555556,71.6666667 L254.277778,50.1666667 L254.277778,50.1666667 Z" id="Shape-Copy-4"></path>
            <path d="M200,190.444444 L200,123.555556 C200,118.3 195.7,114 190.444444,114 L123.555556,114 C118.3,114 114,118.3 114,123.555556 L114,190.444444 C114,195.7 118.3,200 123.555556,200 L190.444444,200 C195.7,200 200,195.7 200,190.444444 L200,190.444444 Z M140.277778,164.166667 L152.222222,178.547778 L168.944444,157 L190.444444,185.666667 L123.555556,185.666667 L140.277778,164.166667 L140.277778,164.166667 Z" id="Shape-Copy-3"></path>
            <path d="M314,190.444444 L314,123.555556 C314,118.3 309.7,114 304.444444,114 L237.555556,114 C232.3,114 228,118.3 228,123.555556 L228,190.444444 C228,195.7 232.3,200 237.555556,200 L304.444444,200 C309.7,200 314,195.7 314,190.444444 L314,190.444444 Z M254.277778,164.166667 L266.222222,178.547778 L282.944444,157 L304.444444,185.666667 L237.555556,185.666667 L254.277778,164.166667 L254.277778,164.166667 Z" id="Shape-Copy-5"></path>
        </g>
    </g>
</svg>