<?xml version="1.0" encoding="UTF-8" standalone="no"?>
<svg width="317px" height="214px" viewBox="0 0 317 214" version="1.1" xmlns="http://www.w3.org/2000/svg" xmlns:xlink="http://www.w3.org/1999/xlink">
    <!-- Generator: Sketch 3.7.2 (28276) - http://www.bohemiancoding.com/sketch -->
    <title>Slice 1 Copy 2</title>
    <desc>Created with Sketch.</desc>
    <defs></defs>
    <g id="Page-1" stroke="none" stroke-width="1" fill="none" fill-rule="evenodd">
        <g id="icon-anything" transform="translate(11.000000, 2.000000)" fill="#393939">
            <path d="M220.546345,4.67249189 C204.870396,4.67249189 192.191915,17.353834 192.191915,33.033321 C192.191915,54.3039428 220.546345,85.7034322 220.546345,85.7034322 C220.546345,85.7034322 248.900776,54.3039428 248.900776,33.033321 C248.900776,17.353834 236.222295,4.67249189 220.546345,4.67249189 L220.546345,4.67249189 Z M220.546345,43.1621885 C214.956472,43.1621885 210.419763,38.6244559 210.419763,33.033321 C210.419763,27.4421861 214.956472,22.9044535 220.546345,22.9044535 C226.136219,22.9044535 230.672927,27.4421861 230.672927,33.033321 C230.672927,38.6244559 226.136219,43.1621885 220.546345,43.1621885 L220.546345,43.1621885 Z" id="Shape" transform="translate(220.546345, 45.187962) rotate(-349.000000) translate(-220.546345, -45.187962) "></path>
            <path d="M126.946004,32.298607 L94.540941,32.298607 L94.540941,24.1955129 L126.946004,24.1955129 L126.946004,32.298607 L126.946004,32.298607 Z M126.946004,7.98932487 L94.540941,7.98932487 L94.540941,16.0924189 L126.946004,16.0924189 L126.946004,7.98932487 L126.946004,7.98932487 Z M94.540941,48.504795 L126.946004,48.504795 L126.946004,40.401701 L94.540941,40.401701 L94.540941,48.504795 L94.540941,48.504795 Z M86.4396752,16.0924189 L86.4396752,40.401701 C86.4396752,44.8584027 82.7941056,48.504795 78.3384094,48.504795 L54.0346119,48.504795 C49.5789157,48.504795 45.9333461,44.8584027 45.9333461,40.401701 L45.9333461,16.0924189 C45.9333461,11.6357172 49.5789157,7.98932487 54.0346119,7.98932487 L78.3384094,7.98932487 C82.7941056,7.98932487 86.4396752,11.6357172 86.4396752,16.0924189 L86.4396752,16.0924189 Z M80.3637259,40.401701 L71.2498018,28.2470599 L64.1611942,37.4035562 L59.0979031,31.2857202 L52.0092955,40.401701 L80.3637259,40.401701 L80.3637259,40.401701 Z" id="Shape" transform="translate(86.439675, 28.247060) rotate(-12.000000) translate(-86.439675, -28.247060) "></path>
            <path d="M50.7079525,178.257552 L10.2016233,178.257552 L10.2016233,186.360646 L50.7079525,186.360646 L50.7079525,178.257552 L50.7079525,178.257552 Z M75.0117499,145.845176 L10.2016233,145.845176 L10.2016233,153.94827 L75.0117499,153.94827 L75.0117499,145.845176 L75.0117499,145.845176 Z M10.2016233,170.154458 L75.0117499,170.154458 L75.0117499,162.051364 L10.2016233,162.051364 L10.2016233,170.154458 L10.2016233,170.154458 Z M10.2016233,129.638988 L10.2016233,137.742082 L75.0117499,137.742082 L75.0117499,129.638988 L10.2016233,129.638988 L10.2016233,129.638988 Z" id="Shape" transform="translate(42.606687, 157.999817) rotate(-31.000000) translate(-42.606687, -157.999817) "></path>
            <path d="M144.687764,96.319797 C122.32827,96.319797 104.181435,114.470728 104.181435,136.835267 C104.181435,159.199807 122.32827,177.350737 144.687764,177.350737 C167.047257,177.350737 185.194093,159.199807 185.194093,136.835267 C185.194093,114.470728 167.047257,96.319797 144.687764,96.319797 L144.687764,96.319797 Z M144.687764,108.474438 C151.411814,108.474438 156.839662,113.903511 156.839662,120.629079 C156.839662,127.354647 151.411814,132.78372 144.687764,132.78372 C137.963713,132.78372 132.535865,127.354647 132.535865,120.629079 C132.535865,113.903511 137.963713,108.474438 144.687764,108.474438 L144.687764,108.474438 Z M144.687764,166.006406 C134.561181,166.006406 125.609283,160.820425 120.383966,152.960424 C120.505485,144.897846 136.586498,140.481659 144.687764,140.481659 C152.748523,140.481659 168.870042,144.897846 168.991561,152.960424 C163.766245,160.820425 154.814346,166.006406 144.687764,166.006406 L144.687764,166.006406 Z" id="Shape"></path>
            <path d="M211.018152,141.654769 L211.018152,154.654769 L232.684818,154.654769 L232.684818,206.654769 L245.684818,206.654769 L245.684818,154.654769 L267.351485,154.654769 L267.351485,141.654769 L211.018152,141.654769 L211.018152,141.654769 Z M293.351485,163.321435 L254.351485,163.321435 L254.351485,176.321435 L267.351485,176.321435 L267.351485,206.654769 L280.351485,206.654769 L280.351485,176.321435 L293.351485,176.321435 L293.351485,163.321435 L293.351485,163.321435 Z" id="Shape" transform="translate(252.184818, 174.154769) rotate(-350.000000) translate(-252.184818, -174.154769) "></path>
        </g>
    </g>
</svg>